# AST/ASF file generated using VICON BodyLanguage
# -----------------------------------------------
:version 1.10
:name VICON
:units
  mass 1.0
  length 0.45
  angle deg
:documentation
   .ast/.asf automatically generated from VICON data using
   VICON BodyBuilder and BodyLanguage model FoxedUp or BRILLIANT.MOD
:root
   order TX TY TZ RX RY RZ
   axis XYZ
   position 0 0 0  
   orientation 0 0 0 
:bonedata
  begin
     id 1 
     name lhipjoint
     direction 0.710188 -0.616876 0.339259 
     length 2.5669 
     axis 0 0 0  XYZ
  end
  begin
     id 2 
     name lfemur
     direction 0.34202 -0.939693 0  
     length 7.12796  
     axis 0 0 20  XYZ
    dof rx ry rz
    limits (-160.0 20.0)
           (-70.0 70.0)
           (-60.0 70.0)
  end
  begin
     id 3 
     name ltibia
     direction 0.34202 -0.939693 0   
     length 7.58108   
     axis 0 0 20   XYZ
    dof rx
    limits (-10.0 170.0)
  end
  begin
     id 4 
     name lfoot
     direction 0.0669471 -0.183936 0.980656   
     length 2.17365   
     axis -90 7.62852e-016 20   XYZ
    dof rx rz
    limits (-45.0 90.0)
           (-70.0 20.0)
  end
  begin
     id 5 
     name ltoes
     direction 1.53508e-011 -4.21705e-011 1   
     length 1.09427   
     axis -90 7.62852e-016 20   XYZ
    dof rx
    limits (-90.0 20.0)
  end
  begin
     id 6 
     name rhipjoint
     direction -0.700191 -0.625589 0.34405   
     length 2.53115  
     axis 0 0 0  XYZ 
  end
  begin
     id 7 
     name rfemur
     direction -0.34202 -0.939693 0   
     length 7.33006   
     axis 0 0 -20   XYZ
    dof rx ry rz
    limits (-160.0 20.0)
           (-70.0 70.0)
           (-70.0 60.0)
  end
  begin
     id 8 
     name rtibia
     direction -0.34202 -0.939693 0   
     length 7.64926   
     axis 0 0 -20   XYZ
    dof rx
    limits (-10.0 170.0)
 end
 begin
     id 9 
     name rfoot
     direction -0.0688927 -0.189281 0.979503   
     length 2.20493  
     axis -90 -7.62852e-016 -20   XYZ
    dof rx rz
    limits (-45.0 90.0)
           (-20.0 70.0)
  end
  begin
     id 10 
     name rtoes
     direction -1.53567e-011 -4.21933e-011 1   
     length 1.10919   
     axis -90 -7.62852e-016 -20   XYZ
    dof rx
    limits (-90.0 20.0)
  end
  begin
     id 11 
     name lowerback
     direction -0.0167868 0.989873 -0.140959   
     length 2.14596   
     axis 0 0 0   XYZ
    dof rx ry rz
    limits (-20.0 45.0)
           (-30.0 30.0)
           (-30.0 30.0)
  end
  begin
     id 12 
     name upperback
     direction 0.0129109 0.998033 0.0613525   
     length 2.10457   
     axis 0 0 0   XYZ
    dof rx ry rz
    limits (-20.0 45.0)
           (-30.0 30.0)
           (-30.0 30.0)
  end
  begin
     id 13 
     name thorax
     direction 0.0177047 0.991119 0.131797   
     length 2.17652   
     axis 0 0 0   XYZ
    dof rx ry rz
    limits (-20.0 45.0)
           (-30.0 30.0)
           (-30.0 30.0)
  end
  begin
     id 14 
     name lowerneck
     direction -0.0336893 0.997548 0.0613464   
     length 1.8912   
     axis 0 0 0   XYZ
    dof rx ry rz
    limits (-20.0 45.0)
           (-30.0 30.0)
           (-30.0 30.0)
  end
  begin
     id 15 
     name upperneck
     direction 0.0435909 0.997179 -0.0611028   
     length 1.8829   
     axis 0 0 0   XYZ
    dof rx ry rz
    limits (-20.0 45.0)
           (-30.0 30.0)
           (-30.0 30.0)
  end
  begin
     id 16
     name head
     direction 0.0175076 0.999444 -0.0283782  
     length 1.93197  
     axis 0 0 0   XYZ
    dof rx ry rz
    limits (-20.0 45.0)
           (-30.0 30.0)
           (-30.0 30.0)
  end
  begin
     id 17 
     name lclavicle
     direction 0.919164 0.389875 0.0559876  
     length 3.60004  
     axis 0 0 0   XYZ
    dof ry rz
    limits (-20.0 10.0)
           (0.0 20.0)
  end
  begin
     id 18 
     name lhumerus
     direction 1 -4.48958e-011 6.89191e-027   
     length 5.43301   
     axis 180 -30 -90   XYZ
    dof rx ry rz
    limits (-60.0 90.0)
           (-90.0 90.0)
           (-90.0 90.0)
  end
  begin
     id 19
     name lradius
     direction 1 -4.4897e-011 3.24727e-027   
     length 3.15936   
     axis 180 -30 -90   XYZ
    dof rx
    limits (-10.0 170.0)
  end
  begin
     id 20
     name lwrist
     direction 1 -4.4897e-011 9.00228e-027   
     length 1.57968   
     axis -6.29373e-015 90 90   XYZ
    dof ry
    limits (-180.0 0.0)
 end
  begin
     id 21 
     name lhand
     direction 1 -4.48968e-011 1.80042e-026   
     length 0.712827   
     axis -1.14882e-014 90 90   XYZ
    dof rx rz
    limits (-90.0 90.0)
           (-45.0 45.0)
  end
  begin
     id 22 
     name lfingers
     direction 1 -4.49019e-011 3.60267e-026   
     length 0.574699   
     axis -2.29769e-014 90 90   XYZ
    dof rx
    limits (0.0 90.0)
  end
  begin
     id 23
     name lthumb
     direction 0.707107 -6.3498e-011 0.707107   
     length 0.825157   
     axis -90 45 5.37419e-014   XYZ
    dof rx rz
    limits (-45.0 45.0)
           (-45.0 45.0)
  end
  begin
     id 24 
     name rclavicle
     direction -0.890334 0.455305 -0.00132111   
     length 3.51494  
     axis 0 0 0   XYZ 
    dof ry rz
    limits (-10.0 20.0)
           (-20.0 0.0)
  end
  begin
     id 25 
     name rhumerus
     direction -1 -4.48967e-011 5.07175e-028  
     length 5.34194   
     axis 180 30 90   XYZ
    dof rx ry rz
    limits (-90.0 60.0)
           (-90.0 90.0)
           (-90.0 90.0)
  end
  begin
     id 26 
     name rradius
     direction -1 -4.48955e-011 3.30467e-027   
     length 3.19351   
     axis 180 30 90   XYZ
    dof rx
    limits (-10.0 170.0)
  end
  begin
     id 27 
     name rwrist
     direction -1 -4.48968e-011 9.00208e-027   
     length 1.59676   
     axis -6.29373e-015 -90 -90   XYZ
    dof ry
    limits (-180.0 0.0)
  end
  begin
     id 28
     name rhand
     direction -1 -4.49e-011 1.80099e-026   
     length 0.743862   
     axis -1.14882e-014 -90 -90   XYZ
    dof rx rz
    limits (-90.0 90.0)
           (-45.0 45.0)
  end
  begin
     id 29
     name rfingers
     direction -1 -4.49009e-011 3.6023e-026   
     length 0.599721   
     axis -2.29769e-014 -90 -90   XYZ
    dof rx
    limits (0.0 90.0)
  end
  begin
     id 30
     name rthumb
     direction -0.707107 -6.35025e-011 0.707107   
     length 0.861083   
     axis -90 -45 -5.37419e-014   XYZ
    dof rx rz
    limits (-45.0 45.0)
           (-45.0 45.0)
  end
:hierarchy
  begin
    root lhipjoint rhipjoint lowerback
    lhipjoint lfemur
    lfemur ltibia
    ltibia lfoot
    lfoot ltoes
    rhipjoint rfemur
    rfemur rtibia
    rtibia rfoot
    rfoot rtoes
    lowerback upperback
    upperback thorax
    thorax lowerneck lclavicle rclavicle
    lowerneck upperneck
    upperneck head
    lclavicle lhumerus
    lhumerus lradius
    lradius lwrist
    lwrist lhand lthumb
    lhand lfingers
    rclavicle rhumerus
    rhumerus rradius
    rradius rwrist
    rwrist rhand rthumb
    rhand rfingers
  end

#!OML:ASF H:\Martial Arts Walks\Project 1\Capture day 1\Session 1\male.ASF
:FULLY-SPECIFIED
:DEGREES
846
root 0.633381 13.3017 30.2377 14.2683 -32.267 -17.6083
lowerback 10.7782 1.91133 5.24962
upperback -1.4647 3.59903 5.12604
thorax -7.64413 1.6311 1.87213
lowerneck -4.74812 7.46569 2.33685
upperneck 10.4472 9.79206 0.229038
head 4.40618 4.91995 0.195781
rclavicle -7.71036e-014 2.8625e-014
rhumerus -76.1793 19.408 -96.8063
rradius 112.065
rwrist -50.8523
rhand 1.90413 -13.3973
rfingers 7.12502
rthumb 27.4129 -41.423
lclavicle -7.71036e-014 2.8625e-014
lhumerus 5.79755 -2.62073 66.8301
lradius 28.8776
lwrist -40.6911
lhand -21.8434 25.1856
lfingers 7.12502
lthumb 4.55999 55.1165
rfemur 10.5677 -2.85232 10.3241
rtibia 33.4874
rfoot -24.3464 -26.7812
rtoes -26.322
lfemur -67.7648 36.3752 -5.02417
ltibia 80.632
lfoot -11.1516 0.83627
ltoes -3.27149
847
root 0.630999 13.2907 30.256 14.2491 -32.1709 -17.6491
lowerback 10.7936 1.90451 5.23292
upperback -1.45034 3.58871 5.13595
thorax -7.63914 1.62723 1.89331
lowerneck -4.69025 7.44969 2.349
upperneck 10.3632 9.77132 0.221207
head 4.36503 4.91026 0.184857
rclavicle -2.0773e-014 -9.74045e-015
rhumerus -76.1887 19.3255 -96.7298
rradius 112.089
rwrist -50.9609
rhand 1.67824 -13.6078
rfingers 7.12502
rthumb 27.1968 -41.6676
lclavicle -2.0773e-014 -9.74045e-015
lhumerus 5.9328 -2.66898 66.8526
lradius 28.8994
lwrist -40.4646
lhand -21.7787 25.0964
lfingers 7.12502
lthumb 4.6225 55.0259
rfemur 10.8236 -2.83442 10.3209
rtibia 33.2756
rfoot -24.2969 -26.6736
rtoes -26.6952
lfemur -67.8421 36.4109 -5.02062
ltibia 80.8317
lfoot -11.3294 0.769263
ltoes -3.2082
848
root 0.62854 13.28 30.2728 14.2316 -32.0704 -17.6746
lowerback 10.7994 1.89467 5.20077
upperback -1.43811 3.5715 5.14278
thorax -7.63162 1.62071 1.92126
lowerneck -4.64235 7.44004 2.35914
upperneck 10.2908 9.75765 0.227483
head 4.32927 4.90456 0.180102
rclavicle 7.61097e-014 1.21259e-014
rhumerus -76.1821 19.2491 -96.6548
rradius 112.095
rwrist -51.0629
rhand 1.42537 -13.8246
rfingers 7.12502
rthumb 26.9549 -41.922
lclavicle 7.61097e-014 1.21259e-014
lhumerus 6.05786 -2.68658 66.8818
lradius 28.9201
lwrist -40.2998
lhand -21.7221 25.0061
lfingers 7.12502
lthumb 4.67716 54.9345
rfemur 11.0464 -2.83667 10.3077
rtibia 33.1002
rfoot -24.2716 -26.5712
rtoes -27.0131
lfemur -67.9339 36.4401 -5.0407
ltibia 81.0186
lfoot -11.4995 0.70276
ltoes -3.12128
849
root 0.625945 13.2695 30.2884 14.2338 -31.9626 -17.7021
lowerback 10.7887 1.88495 5.16997
upperback -1.43551 3.55405 5.15111
thorax -7.625 1.61401 1.95058
lowerneck -4.59338 7.43169 2.36857
upperneck 10.2309 9.74465 0.245154
head 4.29712 4.89965 0.179548
rclavicle -8.41356e-014 -2.54444e-014
rhumerus -76.1732 19.1726 -96.5827
rradius 112.082
rwrist -51.1315
rhand 1.19772 -14.0045
rfingers 7.12502
rthumb 26.7371 -42.1353
lclavicle -8.41356e-014 -2.54444e-014
lhumerus 6.16698 -2.67563 66.93
lradius 28.9371
lwrist -40.2265
lhand -21.6756 24.9081
lfingers 7.12502
lthumb 4.72201 54.8355
rfemur 11.2331 -2.87175 10.2993
rtibia 32.9492
rfoot -24.2615 -26.4809
rtoes -27.2992
lfemur -68.0531 36.4657 -5.07138
ltibia 81.1959
lfoot -11.6589 0.632402
ltoes -3.00887
850
root 0.623457 13.2594 30.303 14.2551 -31.8453 -17.7287
lowerback 10.7587 1.87535 5.14568
upperback -1.44014 3.53637 5.15717
thorax -7.61458 1.60693 1.97444
lowerneck -4.55115 7.42469 2.37409
upperneck 10.1823 9.73187 0.280403
head 4.26914 4.89546 0.186024
rclavicle -3.4191e-014 -1.80894e-014
rhumerus -76.1601 19.093 -96.5194
rradius 112.057
rwrist -51.1532
rhand 1.03333 -14.1232
rfingers 7.12502
rthumb 26.5798 -42.2779
lclavicle -3.4191e-014 -1.80894e-014
lhumerus 6.28088 -2.73021 66.9613
lradius 28.9339
lwrist -40.1632
lhand -21.6707 24.8277
lfingers 7.12502
lthumb 4.72677 54.7549
rfemur 11.3875 -2.9335 10.3015
rtibia 32.8127
rfoot -24.253 -26.4264
rtoes -27.547
lfemur -68.2031 36.4829 -5.11574
ltibia 81.3642
lfoot -11.8046 0.555979
ltoes -2.87137
851
root 0.620932 13.2495 30.3167 14.2939 -31.728 -17.7533
lowerback 10.7109 1.86834 5.11921
upperback -1.45166 3.52083 5.1625
thorax -7.60147 1.60103 1.99886
lowerneck -4.53212 7.42687 2.35423
upperneck 10.1582 9.72886 0.356992
head 4.2507 4.89692 0.212446
rclavicle -7.20594e-015 2.38542e-014
rhumerus -76.1511 19.0197 -96.4701
rradius 112.022
rwrist -51.1346
rhand 0.961659 -14.1577
rfingers 7.12502
rthumb 26.5112 -42.3229
lclavicle -7.20594e-015 2.38542e-014
lhumerus 6.39185 -2.8494 66.9795
lradius 28.9158
lwrist -40.1113
lhand -21.7193 24.7727
lfingers 7.12502
lthumb 4.67983 54.7011
rfemur 11.5143 -3.00799 10.3157
rtibia 32.6821
rfoot -24.2529 -26.4135
rtoes -27.7259
lfemur -68.3751 36.5021 -5.17203
ltibia 81.5254
lfoot -11.9422 0.474224
ltoes -2.7358
852
root 0.618418 13.2395 30.3301 14.3517 -31.6122 -17.7851
lowerback 10.6401 1.86246 5.10314
upperback -1.46552 3.50625 5.16757
thorax -7.57694 1.59534 2.01767
lowerneck -4.53177 7.43721 2.3189
upperneck 10.1481 9.73537 0.456663
head 4.23878 4.90349 0.250692
rclavicle 2.13942e-014 -3.04141e-014
rhumerus -76.1461 18.9591 -96.4412
rradius 111.983
rwrist -51.0942
rhand 0.99176 -14.1271
rfingers 7.12502
rthumb 26.54 -42.2879
lclavicle 2.13942e-014 -3.04141e-014
lhumerus 6.49877 -2.98504 66.9953
lradius 28.886
lwrist -40.1223
lhand -21.8158 24.7229
lfingers 7.12502
lthumb 4.58667 54.6532
rfemur 11.6211 -3.09459 10.349
rtibia 32.551
rfoot -24.2601 -26.4489
rtoes -27.833
lfemur -68.565 36.5311 -5.22913
ltibia 81.6837
lfoot -12.0762 0.380902
ltoes -2.61204
853
root 0.616011 13.2293 30.3432 14.4277 -31.5053 -17.8308
lowerback 10.554 1.85843 5.09979
upperback -1.48056 3.49458 5.17353
thorax -7.54433 1.59066 2.03027
lowerneck -4.53716 7.45345 2.27915
upperneck 10.1332 9.74931 0.563925
head 4.22565 4.91391 0.292626
rclavicle -1.53313e-014 -5.96354e-015
rhumerus -76.1439 18.9197 -96.4346
rradius 111.942
rwrist -51.0594
rhand 1.01444 -14.121
rfingers 7.12502
rthumb 26.5617 -42.2785
lclavicle -1.53313e-014 -5.96354e-015
lhumerus 6.5921 -3.09574 67.0182
lradius 28.8557
lwrist -40.2248
lhand -21.9113 24.6603
lfingers 7.12502
lthumb 4.49439 54.5927
rfemur 11.7114 -3.1714 10.4123
rtibia 32.4166
rfoot -24.2686 -26.5437
rtoes -27.8424
lfemur -68.7647 36.5794 -5.27756
ltibia 81.8412
lfoot -12.2098 0.276551
ltoes -2.49098
854
root 0.613862 13.2186 30.3562 14.5179 -31.4118 -17.8951
lowerback 10.4594 1.85461 5.11404
upperback -1.49673 3.48482 5.18137
thorax -7.50711 1.58623 2.03496
lowerneck -4.53419 7.47397 2.23891
upperneck 10.1034 9.7697 0.667473
head 4.20576 4.92735 0.332887
rclavicle -2.90723e-015 -4.75095e-014
rhumerus -76.1508 18.9116 -96.4532
rradius 111.901
rwrist -51.0459
rhand 1.00522 -14.161
rfingers 7.12502
rthumb 26.5528 -42.3198
lclavicle -2.90723e-015 -4.75095e-014
lhumerus 6.65875 -3.14381 67.0563
lradius 28.8323
lwrist -40.419
lhand -21.9795 24.5726
lfingers 7.12502
lthumb 4.42853 54.5063
rfemur 11.7908 -3.25256 10.4945
rtibia 32.2806
rfoot -24.2758 -26.6796
rtoes -27.7834
lfemur -68.9649 36.6527 -5.30853
ltibia 82.0023
lfoot -12.3477 0.161228
ltoes -2.38754
855
root 0.612197 13.2074 30.3693 14.6221 -31.3342 -17.9804
lowerback 10.3596 1.85296 5.15463
upperback -1.51531 3.48097 5.19022
thorax -7.46813 1.58352 2.02521
lowerneck -4.51147 7.49191 2.21834
upperneck 10.0503 9.7888 0.739033
head 4.17668 4.93947 0.357756
rclavicle 2.47238e-014 7.7526e-015
rhumerus -76.167 18.926 -96.4894
rradius 111.862
rwrist -51.0566
rhand 0.949815 -14.2566
rfingers 7.12502
rthumb 26.4998 -42.4235
lclavicle 2.47238e-014 7.7526e-015
lhumerus 6.70534 -3.16143 67.0991
lradius 28.8083
lwrist -40.6346
lhand -21.9959 24.4568
lfingers 7.12502
lthumb 4.41274 54.3908
rfemur 11.8585 -3.33464 10.5908
rtibia 32.1486
rfoot -24.2808 -26.8366
rtoes -27.6756
lfemur -69.1614 36.7519 -5.31835
ltibia 82.1675
lfoot -12.4896 0.0369025
ltoes -2.27446
856
root 0.611245 13.1959 30.3822 14.7359 -31.2774 -18.0791
lowerback 10.2574 1.8531 5.21517
upperback -1.53412 3.48149 5.19654
thorax -7.42674 1.58203 2.00101
lowerneck -4.45946 7.50893 2.20091
upperneck 9.95593 9.80891 0.794039
head 4.1282 4.95151 0.37405
rclavicle 2.25869e-014 -2.32578e-014
rhumerus -76.1849 18.9636 -96.5373
rradius 111.822
rwrist -51.087
rhand 0.873392 -14.3642
rfingers 7.12502
rthumb 26.4267 -42.542
lclavicle 2.25869e-014 -2.32578e-014
lhumerus 6.73604 -3.17951 67.1289
lradius 28.7875
lwrist -40.7709
lhand -21.975 24.3175
lfingers 7.12502
lthumb 4.43291 54.2511
rfemur 11.9127 -3.40222 10.6923
rtibia 32.0264
rfoot -24.286 -26.9936
rtoes -27.536
lfemur -69.3499 36.8765 -5.31411
ltibia 82.3358
lfoot -12.637 -0.0921257
ltoes -2.18701
